<?xml version="1.0" encoding="UTF-8" standalone="no"?>
<svg
   viewBox="0 0 439.76178 345.51797"
   version="1.1"
   id="svg307"
   sodipodi:docname="logo.svg"
   inkscape:version="1.1.2 (0a00cf5339, 2022-02-04)"
   xmlns:inkscape="http://www.inkscape.org/namespaces/inkscape"
   xmlns:sodipodi="http://sodipodi.sourceforge.net/DTD/sodipodi-0.dtd"
   xmlns:xlink="http://www.w3.org/1999/xlink"
   xmlns="http://www.w3.org/2000/svg"
   xmlns:svg="http://www.w3.org/2000/svg">
  <sodipodi:namedview
     id="namedview309"
     pagecolor="#ffffff"
     bordercolor="#666666"
     borderopacity="1.0"
     inkscape:pageshadow="2"
     inkscape:pageopacity="0.0"
     inkscape:pagecheckerboard="0"
     showgrid="false"
     inkscape:zoom="2.5613718"
     inkscape:cx="164.16984"
     inkscape:cy="177.44398"
     inkscape:window-width="1920"
     inkscape:window-height="1131"
     inkscape:window-x="0"
     inkscape:window-y="38"
     inkscape:window-maximized="1"
     inkscape:current-layer="svg307" />
  <defs
     id="defs247">
    <filter
       id="f"
       x="-0.025669546"
       y="-0.022589689"
       width="1.0513391"
       height="1.0451794">
      <feGaussianBlur
         stdDeviation=".2377"
         id="feGaussianBlur176" />
    </filter>
    <filter
       id="m"
       x="-0.432318"
       y="-0.27415491"
       width="1.864636"
       height="1.5483098">
      <feGaussianBlur
         stdDeviation="2.3655"
         id="feGaussianBlur179" />
    </filter>
    <filter
       id="n"
       x="-0.13909348"
       y="-0.28242702"
       width="1.278187"
       height="1.564854">
      <feGaussianBlur
         stdDeviation="12.5148"
         id="feGaussianBlur182" />
    </filter>
    <filter
       id="v"
       x="-0.078669299"
       y="-0.17219936"
       width="1.1573386"
       height="1.3443987">
      <feGaussianBlur
         stdDeviation="2.2207"
         id="feGaussianBlur185" />
    </filter>
    <filter
       id="s"
       x="-0.079089648"
       y="-0.17234876"
       width="1.1581793"
       height="1.3446975">
      <feGaussianBlur
         stdDeviation="2.1962"
         id="feGaussianBlur188" />
    </filter>
    <filter
       id="u"
       x="-0.078345276"
       y="-0.17377347"
       width="1.1566906"
       height="1.3475469">
      <feGaussianBlur
         stdDeviation="2.241"
         id="feGaussianBlur191" />
    </filter>
    <filter
       id="t"
       x="-0.080545049"
       y="-0.16569254"
       width="1.1610901"
       height="1.3313851">
      <feGaussianBlur
         stdDeviation="2.2301"
         id="feGaussianBlur194" />
    </filter>
    <filter
       id="e"
       x="-0.14637591"
       y="-0.15670321"
       width="1.2941474"
       height="1.3137396">
      <feGaussianBlur
         stdDeviation="4.0338"
         id="feGaussianBlur197" />
    </filter>
    <filter
       id="o"
       x="-0.19915218"
       y="-0.36522707"
       width="1.3984146"
       height="1.7356979">
      <feGaussianBlur
         stdDeviation="5.4803"
         id="feGaussianBlur200" />
    </filter>
    <filter
       id="q"
       x="-0.14015345"
       y="-0.087843877"
       width="1.2803069"
       height="1.1756878">
      <feGaussianBlur
         stdDeviation="5.8322"
         id="feGaussianBlur203" />
    </filter>
    <filter
       id="p"
       x="-0.28099701"
       y="-0.16310343"
       width="1.561994"
       height="1.3262069">
      <feGaussianBlur
         stdDeviation="4.8353"
         id="feGaussianBlur206" />
    </filter>
    <filter
       id="w"
       x="-0.17943775"
       y="-0.19205404"
       width="1.3588755"
       height="1.3841081">
      <feGaussianBlur
         stdDeviation="1.8012"
         id="feGaussianBlur209" />
    </filter>
    <filter
       id="r"
       x="-0.061036344"
       y="-0.13733171"
       width="1.1220727"
       height="1.2746634">
      <feGaussianBlur
         stdDeviation="1.8303"
         id="feGaussianBlur212" />
    </filter>
    <filter
       id="d"
       x="-0.30386403"
       y="-0.57966217"
       width="1.6077281"
       height="2.1593243">
      <feGaussianBlur
         stdDeviation=".52"
         id="feGaussianBlur215" />
    </filter>
    <linearGradient
       id="b">
      <stop
         offset="0"
         id="stop218" />
      <stop
         stop-opacity="0"
         offset="1"
         id="stop220" />
    </linearGradient>
    <linearGradient
       id="c">
      <stop
         stop-color="#fff"
         offset="0"
         id="stop223" />
      <stop
         offset="1"
         id="stop225" />
    </linearGradient>
    <linearGradient
       id="l"
       x1="436.06"
       x2="414.03"
       y1="124.39"
       y2="152.24"
       gradientUnits="userSpaceOnUse"
       gradientTransform="translate(-178.522,-98.047)">
      <stop
         stop-color="#b6c7ea"
         offset="0"
         id="stop228" />
      <stop
         stop-color="#b6c7ea"
         stop-opacity="0"
         offset="1"
         id="stop230" />
    </linearGradient>
    <radialGradient
       id="k"
       cx="400.09"
       cy="213.97"
       r="40.693"
       gradientTransform="matrix(-0.9209,-0.01555,0.00977,-0.57854,766.44,350.92)"
       gradientUnits="userSpaceOnUse">
      <stop
         stop-color="#fff"
         stop-opacity="0"
         offset="0"
         id="stop233" />
      <stop
         offset="1"
         id="stop235" />
    </radialGradient>
    <radialGradient
       id="a"
       cx="535.89"
       cy="157.37"
       r="11.112"
       gradientTransform="matrix(2.954 -.02516 .02275 2.4927 -1050.7 -221.41)"
       gradientUnits="userSpaceOnUse">
      <stop
         stop-color="#fff"
         offset="0"
         id="stop238" />
      <stop
         stop-color="#979797"
         offset="1"
         id="stop240" />
    </radialGradient>
    <radialGradient
       id="g"
       cx="366.78"
       cy="437.86"
       r="150.3"
       gradientTransform="matrix(0.14877,0.01999,-0.0194,0.14228,351.62,327.53)"
       gradientUnits="userSpaceOnUse"
       xlink:href="#b" />
    <radialGradient
       id="h"
       cx="241.16"
       cy="390.35"
       r="150.3"
       gradientTransform="matrix(0.68663,-0.0922,0.06092,0.6704,49.227,131.94)"
       gradientUnits="userSpaceOnUse"
       xlink:href="#b" />
    <radialGradient
       id="j"
       cx="536.98"
       cy="157"
       r="11.112"
       gradientTransform="matrix(0.22664,-0.10455,0.18862,0.40889,47.51,81.84)"
       gradientUnits="userSpaceOnUse"
       xlink:href="#c" />
    <radialGradient
       id="i"
       cx="536.98"
       cy="157"
       r="11.112"
       gradientTransform="matrix(0.22664,-0.10455,0.18862,0.40889,102.34,81.84)"
       gradientUnits="userSpaceOnUse"
       xlink:href="#c" />
    <radialGradient
       inkscape:collect="always"
       xlink:href="#a"
       id="radialGradient391"
       gradientUnits="userSpaceOnUse"
       gradientTransform="matrix(2.954,-0.02516,0.02275,2.4927,-1050.7,-221.41)"
       cx="535.89"
       cy="157.37"
       r="11.112" />
    <radialGradient
       inkscape:collect="always"
       xlink:href="#a"
       id="radialGradient393"
       gradientUnits="userSpaceOnUse"
       gradientTransform="matrix(2.954,-0.02516,0.02275,2.4927,-1050.7,-221.41)"
       cx="535.89"
       cy="157.37"
       r="11.112" />
  </defs>
  <path
     transform="matrix(1.3507,0,0,1.0945,-314.447,-135.478)"
     d="m 403.56,396.02 c 0,5.7184 -2.9397,10.354 -6.566,10.354 -3.6263,0 -6.566,-4.6357 -6.566,-10.354 0,-5.7183 2.9397,-10.354 6.566,-10.354 3.6263,0 6.566,4.6357 6.566,10.354 z"
     fill="url(#g)"
     filter="url(#m)"
     opacity="0.3633"
     id="path249"
     style="fill:url(#g)" />
  <path
     transform="matrix(1.3762,0.30355,-0.52379,0.79753,9.91,-80.337)"
     d="m 339.73,351.62 c 0,1.7259 -1.9524,12.621 -5.6193,15.899 -3.6669,3.278 -6.2694,10.08 -15.075,14.089 -5.385,2.4516 -9.8302,-7.2355 -14.448,-6.7334 -4.6178,0.5021 -3.3475,10.703 -5.2498,6.8778 -3.5715,2.9164 -7.046,8.1912 -15.651,12.62 -8.4019,4.5241 -19.428,1.4092 -30.538,3.9394 -11.11,2.5302 -25.292,5.5743 -38.113,5.5743 -51.284,0 -85.235,-1.4679 -91.125,-30.956 -3.5209,-17.628 72.88,-66.595 108.04,-73.692 48.545,-9.7987 107.78,24.767 107.78,52.382 z"
     fill="url(#h)"
     filter="url(#n)"
     opacity="0.54"
     id="path251"
     style="fill:url(#h);opacity:0.33157902" />
  <g
     transform="translate(-180.522,-102.047)"
     id="g259"
     style="fill:#d2572e;fill-opacity:1">
    <path
       d="m 344.51,380.1 c -10.018,6.9446 -13.257,13.504 -17.173,20.708 -6.3887,11.845 0.68554,13.65 21.213,13.132 10.67,14.874 16.867,12.672 26.769,2.0203 13.635,8.3114 23.075,9.3848 22.223,-5.0508 0.30186,-9.9908 -6.5958,-19.467 -15.657,-28.789 z"
       fill="#ff7f2a"
       id="path253"
       style="fill:#d2572e;fill-opacity:1" />
    <path
       transform="matrix(0.90651,0,0,0.90651,34.026,37.077)"
       d="m 350.09,406.39 c -36.276,4.7457 -14.471,-16.002 -14.305,-20.215 -1.4242,0.0693 -3.5268,5.6536 -5.3398,8.9894 -5.9165,10.969 -2.7807,14.919 19.645,12.161 9.8814,13.775 15.62,11.735 24.79,1.871 12.52,7.484 21.851,8.8662 20.581,-4.6774 -0.35269,-2.1638 -0.99332,-3.7161 -1.5359,-4.797 -0.0997,9.0117 1.4634,20.485 -19.162,8.5389 -7.6625,6.7641 -16.382,9.9508 -24.673,-1.871 z"
       fill="#ffffff"
       filter="url(#v)"
       opacity="0.6167"
       id="path255"
       style="fill:#d2572e;fill-opacity:1" />
    <path
       transform="matrix(1.0496,0,0,1.0279,-18.878,-5.9799)"
       d="m 351.54,405.04 c -18.534,2.9117 -17.234,1.1435 -21.259,-0.66144 -4.2112,-2.748 5.7506,-15.737 6.1109,-17.834 -1.4242,0.0693 -3.7674,5.6536 -5.5804,8.9894 -5.6842,10.732 -2.4603,13.854 19.284,11.793 9.8814,13.775 15.62,11.735 24.79,1.871 12.52,7.484 21.249,9.4804 19.979,-4.0632 -0.35269,-2.1638 -0.39179,-4.3303 -0.93439,-5.4112 -0.0498,4.5058 0.79722,10.978 -1.4026,13.48 -2.19982,2.502 -7.4466,-0.81058 -17.759,-6.7836 -3.8312,3.382 -7.4456,9.8007 -11.62,9.9652 -4.1744,0.1645 -7.4644,-5.4339 -11.61,-11.345 z"
       filter="url(#s)"
       opacity="0.6167"
       id="path257"
       style="fill:#d2572e;fill-opacity:1" />
  </g>
  <g
     transform="translate(-179.805,-102.089)"
     id="g267"
     style="fill:#d2572e;fill-opacity:1">
    <path
       d="m 459.59,380.1 c 10.018,6.9446 13.257,13.504 17.173,20.708 6.3887,11.845 -0.68554,13.65 -21.213,13.132 -10.67,14.874 -16.867,12.672 -26.769,2.0203 -13.635,8.3114 -23.075,9.3848 -22.223,-5.0508 -0.30186,-9.9908 6.5958,-19.467 15.657,-28.789 z"
       fill="#ff7f2a"
       id="path261"
       style="fill:#d2572e;fill-opacity:1" />
    <path
       transform="matrix(-0.90651,0,0,0.90651,769.83,37.077)"
       d="m 350.09,406.39 c -36.276,4.7457 -14.471,-16.002 -14.305,-20.215 -1.4242,0.0693 -3.5268,5.6536 -5.3398,8.9894 -7.6181,12.671 -3.6454,15.783 19.645,12.161 9.8814,13.775 15.62,11.735 24.79,1.871 12.52,7.484 21.851,8.8662 20.581,-4.6774 -0.35269,-2.1638 -0.99332,-3.7161 -1.5359,-4.797 0.70974,9.3355 3.205,21.182 -19.162,8.5389 -7.6625,6.7641 -16.382,9.9508 -24.673,-1.871 z"
       fill="#ffffff"
       filter="url(#u)"
       opacity="0.6167"
       id="path263"
       style="fill:#d2572e;fill-opacity:1" />
    <path
       transform="matrix(-1.0496,0,0,1.0279,822.96,-5.9799)"
       d="m 351.54,405.04 c -18.534,2.9117 -17.234,1.1435 -21.259,-0.66144 -4.2112,-2.748 6.5928,-17.457 6.9531,-19.554 -1.4242,0.0693 -4.3689,7.0048 -6.1819,10.341 -5.6842,10.732 -2.7009,14.223 19.044,12.161 9.8814,13.775 15.62,11.735 24.79,1.871 12.52,7.484 21.249,9.3575 19.979,-4.1861 -0.35269,-2.1638 -0.39179,-4.2075 -0.93439,-5.2884 -0.0498,4.5058 0.79722,10.978 -1.4026,13.48 -2.19982,2.502 -7.4466,-0.81058 -17.759,-6.7836 -3.8312,3.382 -7.4456,9.8007 -11.62,9.9652 -4.1744,0.1645 -7.4644,-5.4339 -11.61,-11.345 z"
       filter="url(#t)"
       opacity="0.6167"
       id="path265"
       style="fill:#d2572e;fill-opacity:1" />
  </g>
  <path
     d="m 221.818,14.983 c -37.627,-0.0228 -63.992,23.865 -70.812,40.969 -16.711,30.641 -1.7375,58.969 -4.9375,67.031 -6.9037,21.025 -7.7892,18.611 -39.125,57.875 -19.438,24.769 -44.372,18.475 -37.469,35.75 0.82308,4.5846 39.604,20.021 59.188,3.0938 0.39975,24.317 7.9394,52.106 19.469,63 11.56,14.463 45.852,19.784 73.94,12.408 22.856,5.9261 54.493,5.536 73.435,-12.408 11.529,-10.894 19.069,-38.683 19.469,-63 19.583,16.927 58.364,1.4908 59.188,-3.0938 6.9037,-17.275 -18.031,-10.981 -37.469,-35.75 -31.336,-39.264 -32.221,-36.85 -39.125,-57.875 -3.2,-8.0618 11.773,-36.39 -4.9375,-67.031 C 285.8095,38.845 257.133,14.954 221.82,14.983 Z"
     id="path269"
     style="fill:#1f6592;fill-opacity:1" />
  <path
     d="m 195.598,56.523 c -22.865,0 -41.404,18.54 -41.404,41.405 0,11.545 4.7485,21.971 12.372,29.474 -12.22,16.805 -19.676,39.194 -19.676,63.783 0,52.16 33.543,94.453 74.934,94.453 41.391,0 74.934,-42.293 74.934,-94.453 0,-24.59 -7.4559,-46.979 -19.676,-63.783 7.6235,-7.5032 12.372,-17.929 12.372,-29.474 0,-22.865 -18.54,-41.405 -41.405,-41.405 -9.9565,0 -19.084,3.5006 -26.225,9.357 -7.1417,-5.8563 -16.269,-9.357 -26.226,-9.357 z"
     fill="#ffffff"
     id="path271"
     style="fill:#b7bfc5;fill-opacity:0.74921036" />
  <path
     d="m 139.168,146.443 c -9.61,12.893 -16.674,26.154 -23.455,33.44 -21.269,21.677 -52.13,33.687 -44.982,31.21 41.088,-10.843 65.81,-48.421 68.438,-64.65 z"
     fill="#b6c7ea"
     filter="url(#e)"
     opacity="0.6033"
     stroke="#000000"
     id="path273" />
  <path
     transform="matrix(-1,0,0,1,842.578,-128.788)"
     d="m 540.46,275.23 c -9.61,12.893 -16.674,26.154 -23.455,33.44 -21.269,21.677 -52.13,33.687 -44.982,31.21 41.088,-10.843 65.81,-48.421 68.438,-64.65 z"
     fill="#b6c7ea"
     filter="url(#e)"
     opacity="0.6033"
     stroke="#000000"
     id="path275" />
  <path
     d="m 216.868,17.653 c -3.6352,8.0814 8.0083,14.068 21.66,24.885 24.5,3.4644 32.237,7.1354 46.166,12.493 1.0357,-7.9245 -31.544,-36.201 -67.826,-37.377 z"
     fill="url(#l)"
     filter="url(#o)"
     opacity="0.3"
     stroke="#000000"
     id="path277"
     style="fill:url(#l)" />
  <path
     d="m 164.688,129.673 c -33.2,48.745 -9.3614,133.08 73.416,156.38 -15.565,11.231 -78.319,-10.383 -93.974,-49.362 -12.819,-28.867 -4.1905,-68.225 20.558,-107.01 z"
     filter="url(#q)"
     opacity="0.27"
     id="path279" />
  <path
     d="M 195.738,58.313 C 151.059,42.481 142.599,128.886 170.52,127.508 160.451,126.62614 148.641,68.067 195.738,58.313 Z"
     filter="url(#p)"
     opacity="0.27"
     id="path281" />
  <path
     transform="matrix(1.1979,0,0,1.24,-392.72,-103.996)"
     d="m 547,157.37 c 0,6.9736 -4.9749,12.627 -11.112,12.627 -6.1371,0 -11.112,-5.6533 -11.112,-12.627 0,-6.9737 4.9749,-12.627 11.112,-12.627 6.1371,0 11.112,5.6533 11.112,12.627 z"
     fill="url(#a)"
     filter="url(#f)"
     id="path285"
     style="fill:url(#radialGradient391);opacity:0.6184762" />
  <path
     d="m 259.11,94.42 c 0,6.2763 -4.3255,11.364 -9.6613,11.364 -5.3358,0 -9.6613,-5.0879 -9.6613,-11.364 0,-6.2761 4.3255,-11.364 9.6613,-11.364 5.3358,0 9.6613,5.0879 9.6613,11.364 z"
     fill="url(#i)"
     id="path287"
     style="fill:url(#i)" />
  <path
     transform="matrix(1.1979,0,0,1.24,-447.55,-103.996)"
     d="m 547,157.37 c 0,6.9736 -4.9749,12.627 -11.112,12.627 -6.1371,0 -11.112,-5.6533 -11.112,-12.627 0,-6.9737 4.9749,-12.627 11.112,-12.627 6.1371,0 11.112,5.6533 11.112,12.627 z"
     fill="url(#a)"
     filter="url(#f)"
     id="path289"
     style="fill:url(#radialGradient393);opacity:0.6184762" />
  <path
     d="m 204.28,94.42 c 0,6.2763 -4.3255,11.364 -9.6613,11.364 -5.3358,0 -9.6613,-5.0879 -9.6613,-11.364 0,-6.2761 4.3255,-11.364 9.6613,-11.364 5.3358,0 9.6613,5.0879 9.6613,11.364 z"
     fill="url(#j)"
     id="path291"
     style="fill:url(#j)" />
  <g
     transform="translate(-178.522,-98.047)"
     id="g299"
     style="fill:#d2572e;fill-opacity:1">
    <path
       d="m 364.78,211.53 c -11.971,11.071 23.687,33.255 35.714,33.214 11.334,1.0504 49.562,-22.143 34.286,-33.214 -3.3276,-5.4358 -66.264,-5.1719 -70,0 z"
       fill="#ff7f2a"
       id="path293"
       style="fill:#d2572e;fill-opacity:1" />
    <path
       d="m 426.28,215.7 c 5.2559,-1.7466 7.7064,-1.8677 7.5762,0.50507 1.4898,5.3748 -13.961,15.916 -23.991,20.708 1.0023,-7.0711 21.498,-14.9 16.415,-21.213 z"
       fill="#ffffff"
       filter="url(#w)"
       opacity="0.7467"
       id="path295"
       style="fill:#d2572e;fill-opacity:1" />
    <path
       d="m 366.56,211.88 c -4.4271,2.5954 -1.2827,12.336 8.5212,19.985 8.5827,6.6617 20.051,11.987 25.837,11.968 5.4517,0.50526 17.372,-4.8202 26.091,-11.603 8.719,-6.7828 12.539,-15.996 6.8922,-20.35 4.4893,6.3931 1.6383,10.326 -3.2111,15.287 -4.7696,4.8789 -13.406,10.948 -21.369,12.36 -7.963,1.412 -15.14,0.21315 -22.884,-3.989 -7.841,-4.2549 -23.738,-17.334 -19.877,-23.657 z"
       fill="url(#k)"
       filter="url(#r)"
       opacity="0.2667"
       id="path297"
       style="fill:#d2572e;fill-opacity:1" />
  </g>
  <path
     transform="matrix(1.2305,0,0,1.2305,-263.822,-145.9283)"
     d="m 386.07,212.09 c 0.26019,1.801 0.58264,2.2276 1.7857,2.1429 1.8171,-0.53571 1.5754,-1.0714 2.3214,-1.6071 -2.3448,0.61856 -2.9359,0.0193 -4.1071,-0.53572 z"
     fill="#513a17"
     filter="url(#d)"
     opacity="0.4633"
     id="path301" />
  <path
     transform="matrix(-1.2305,0,0,1.2305,706.94,-145.978)"
     d="m 386.07,212.09 c 0.26019,1.801 0.58264,2.2276 1.7857,2.1429 1.8171,-0.53571 1.5754,-1.0714 2.3214,-1.6071 -2.3448,0.61856 -2.9359,0.0193 -4.1071,-0.53572 z"
     fill="#513a17"
     filter="url(#d)"
     opacity="0.4633"
     id="path303" />
</svg>
